<svg xmlns="http://www.w3.org/2000/svg"  style="display: none;">
    <symbol id="icon-home" viewBox="0 0 24 24">
        <path d="M10 20v-6h4v6h5v-8h3L12 3 2 12h3v8z" />
    </symbol>
    <symbol id="icon-user" viewBox="0 0 24 24">
        <path d="M12 12c2.21 0 4-1.79 4-4S14.21 4 12 4s-4 1.79-4 4 1.79 4 4 4zm0 2c-3.31 0-10 1.68-10 5v2h20v-2c0-3.32-6.69-5-10-5z" />
    </symbol>
    <symbol id="icon-play" fill="none" viewBox="0 0 24 24" stroke-width="1.5" stroke="currentColor" class="size-6">
        <path stroke-linecap="round" stroke-linejoin="round" d="M5.25 5.653c0-.856.917-1.398 1.667-.986l11.54 6.347a1.125 1.125 0 0 1 0 1.972l-11.54 6.347a1.125 1.125 0 0 1-1.667-.986V5.653Z" />
    </symbol>
    <symbol id="icon-pause" fill="none" viewBox="0 0 24 24" stroke-width="1.5" stroke="currentColor" class="size-6">
        <path stroke-linecap="round" stroke-linejoin="round" d="M15.75 5.25v13.5m-7.5-13.5v13.5" />
    </symbol>

    <symbol id="icon-previous" fill="none" viewBox="0 0 24 24" stroke-width="1.5" stroke="currentColor" class="size-6">
        <path stroke-linecap="round" stroke-linejoin="round" d="M21 16.811c0 .864-.933 1.406-1.683.977l-7.108-4.061a1.125 1.125 0 0 1 0-1.954l7.108-4.061A1.125 1.125 0 0 1 21 8.689v8.122ZM11.25 16.811c0 .864-.933 1.406-1.683.977l-7.108-4.061a1.125 1.125 0 0 1 0-1.954l7.108-4.061a1.125 1.125 0 0 1 1.683.977v8.122Z" />
    </symbol>


    <!--
    <symbol id="icon-forward" fill="none" viewBox="0 0 24 24" stroke-width="1.5" stroke="currentColor" class="size-6">
      <path stroke-linecap="round" stroke-linejoin="round" d="M3 8.689c0-.864.933-1.406 1.683-.977l7.108 4.061a1.125 1.125 0 0 1 0 1.954l-7.108 4.061A1.125 1.125 0 0 1 3 16.811V8.69ZM12.75 8.689c0-.864.933-1.406 1.683-.977l7.108 4.061a1.125 1.125 0 0 1 0 1.954l-7.108 4.061a1.125 1.125 0 0 1-1.683-.977V8.69Z" />
    </symbol>
    -->

    <symbol id="icon-repeat" fill="none" viewBox="0 0 24 24" stroke-width="1.5" stroke="currentColor" class="size-6">
      <path stroke-linecap="round" stroke-linejoin="round" d="m15 15 6-6m0 0-6-6m6 6H9a6 6 0 0 0 0 12h3" />
    </symbol>

    <symbol id="icon-volume" fill="none" viewBox="0 0 24 24" stroke-width="1.5" stroke="currentColor" class="size-6">
      <path stroke-linecap="round" stroke-linejoin="round" d="M19.114 5.636a9 9 0 0 1 0 12.728M16.463 8.288a5.25 5.25 0 0 1 0 7.424M6.75 8.25l4.72-4.72a.75.75 0 0 1 1.28.53v15.88a.75.75 0 0 1-1.28.53l-4.72-4.72H4.51c-.88 0-1.704-.507-1.938-1.354A9.009 9.009 0 0 1 2.25 12c0-.83.112-1.633.322-2.396C2.806 8.756 3.63 8.25 4.51 8.25H6.75Z" />
    </symbol>

    <symbol id="icon-mute" fill="none" viewBox="0 0 24 24" stroke-width="1.5" stroke="currentColor" class="size-6">
      <path stroke-linecap="round" stroke-linejoin="round" d="M17.25 9.75 19.5 12m0 0 2.25 2.25M19.5 12l2.25-2.25M19.5 12l-2.25 2.25m-10.5-6 4.72-4.72a.75.75 0 0 1 1.28.53v15.88a.75.75 0 0 1-1.28.53l-4.72-4.72H4.51c-.88 0-1.704-.507-1.938-1.354A9.009 9.009 0 0 1 2.25 12c0-.83.112-1.633.322-2.396C2.806 8.756 3.63 8.25 4.51 8.25H6.75Z" />
    </symbol>



    <!-- next song by masmooh from <a href="https://thenounproject.com/browse/icons/term/next-song/" target="_blank" title="next song Icons">Noun Project</a> (CC BY 3.0) -->
    <symbol id="icon-forward" fill="currentColor" viewBox="0 0 100 125" class="size-6">
        <path d="M27.9,75.8c-1,0-2-0.2-2.9-0.7c-1.8-1-3-3-3-5.1V30.1c0-2.1,1.1-4.1,3-5.1c1.8-1,4.1-1,5.9,0.1L63.5,45  c1.8,1.1,2.8,2.9,2.8,5c0,2.1-1.1,3.9-2.8,5L30.9,74.9C30,75.5,28.9,75.8,27.9,75.8z M27.3,68.9L27.3,68.9L27.3,68.9L27.3,68.9z   M29,32.2v35.6L58.2,50L29,32.2z M78,72.2V27.8c0-1.9-1.6-3.5-3.5-3.5c-1.9,0-3.5,1.6-3.5,3.5v44.5c0,1.9,1.6,3.5,3.5,3.5  C76.4,75.8,78,74.2,78,72.2z" />
    </symbol>

</svg>
